<?xml version="1.0" standalone="no"?><!DOCTYPE svg PUBLIC "-//W3C//DTD SVG 1.1//EN" "http://www.w3.org/Graphics/SVG/1.1/DTD/svg11.dtd"><svg t="1559012055392" class="icon" style="" viewBox="0 0 1024 1024" version="1.1" xmlns="http://www.w3.org/2000/svg" p-id="2386" xmlns:xlink="http://www.w3.org/1999/xlink" width="200" height="200"><defs><style type="text/css"></style></defs><path d="M45.312 263.936h795.776v678.4H92.544a47.232 47.232 0 0 1-47.232-47.232V263.936z" fill="#FFFFFF" p-id="2387"></path><path d="M860.288 961.664h-768A66.56 66.56 0 0 1 25.6 895.104v-650.24h834.688zM64 283.264v611.84a28.16 28.16 0 0 0 28.032 28.032h729.6v-640z" fill="#501192" p-id="2388"></path><path d="M64 895.104a28.16 28.16 0 0 0 28.032 28.032h533.632V482.688H64z" fill="#DED5EB" p-id="2389"></path><path d="M573.312 367.488h405.376V893.44a48.896 48.896 0 0 1-48.896 48.896H524.8V416.384a48.896 48.896 0 0 1 48.512-48.896z" fill="#FFFFFF" p-id="2390"></path><path d="M929.792 961.664H505.088v-545.28a68.224 68.224 0 0 1 68.096-68.096H998.4V893.44a68.224 68.224 0 0 1-68.608 68.224z m-386.176-38.4h386.176A29.696 29.696 0 0 0 960 893.44V386.688H573.312a29.824 29.824 0 0 0-29.696 29.696z" fill="#501192" p-id="2391"></path><path d="M623.488 463.488h278.4v38.4H623.488zM623.488 569.088h278.4v38.4H623.488zM623.488 674.688h128v38.4h-128zM789.888 674.688h43.136v38.4h-43.136zM623.488 776.064h43.136v38.4h-43.136z" fill="#EC1561" p-id="2392"></path><path d="M45.312 463.488h215.424v38.4H45.312zM313.344 463.488h136.448v38.4H313.344z" fill="#501192" p-id="2393"></path><path d="M369.536 81.664h147.2a80 80 0 0 1 80 80v102.4h-307.2v-102.4a80 80 0 0 1 80-80z" fill="#FFFFFF" p-id="2394"></path><path d="M616.064 283.264h-345.6v-121.6a99.328 99.328 0 0 1 99.2-99.2h147.2a99.328 99.328 0 0 1 99.2 99.2z m-307.2-38.4h268.8v-83.2a60.928 60.928 0 0 0-60.8-60.8H369.536a60.928 60.928 0 0 0-60.8 60.8z" fill="#501192" p-id="2395"></path><path d="M384 179.2h117.76a15.104 15.104 0 0 1 15.104 15.104v69.888H369.536v-70.144A15.104 15.104 0 0 1 384 179.2z" fill="#FFFFFF" p-id="2396"></path><path d="M536.064 283.264H350.336v-89.6A34.304 34.304 0 0 1 384 159.744h117.76a34.304 34.304 0 0 1 34.304 34.304z m-147.328-38.4h108.928v-46.72h-108.928z" fill="#501192" p-id="2397"></path></svg>